# xmcd CD database file
#
# Track frame offsets:
#	150
#	61640
#	115620
#	182572
#
# Disc length: 3093 seconds
#
# Revision: 0
# Processed by: cddbd v1.4PL0 Copyright (c) Steve Scherf et al.
# Submitted via: CDex 1.50Beta6
#
DISCID=250c1304
DTITLE=Phil Thornton - Transformation
DYEAR=1989
DGENRE=New Age
TTITLE0=Transformation
TTITLE1=Island Lagoon
TTITLE2=Casting Pearls
TTITLE3=Worlds Apart
EXTD=YEAR: 1989
EXTT0=
EXTT1=
EXTT2=
EXTT3=
PLAYORDER=
